<?xml version="1.0" standalone="no"?><!DOCTYPE svg PUBLIC "-//W3C//DTD SVG 1.1//EN" "http://www.w3.org/Graphics/SVG/1.1/DTD/svg11.dtd"><svg t="1573168879061" class="icon" viewBox="0 0 1024 1024" version="1.1" xmlns="http://www.w3.org/2000/svg" p-id="1896" data-spm-anchor-id="a313x.7781069.0.i9" xmlns:xlink="http://www.w3.org/1999/xlink" width="200" height="200"><defs><style type="text/css"></style></defs><path d="M511.498 12C236.072 12 11.986 236.295 11.986 512c0 275.704 224.086 500 499.512 500 275.46 0 499.546-224.296 499.546-500 0-275.687-224.086-500-499.546-500z m0 929.967C274.681 941.967 81.95 749.061 81.95 512c0-38.086 5.057-76.451 14.37-111.642 1.953 0.366 3.976-0.802 6.034-0.802h5.929v34.058c0 14.544 13.184 26.35 27.727 26.35 2.441 0 5.476-0.454 7.743-1.082l55.35 55.071c5.51 5.511 14.613 5.511 20.159 0 5.511-5.545 5.615-14.492 0.105-20.02l-53.711-56.17c0.174-1.36 2.79-2.738 2.79-4.15v-8.405c0-11.353 6.557-15.625 17.857-25.652h32.924c6.208 0 11.858-0.453 16.811-3.435 0.593-0.349 1.186 0.052 1.744-0.332 1.151-0.785 2.163-1.36 3.208-2.267 0.488-0.436 1.012-0.558 1.465-1.011l1.221-1.134 113.142-113.194c12.556-12.573 12.556-32.924 0-45.48-12.556-12.573-32.924-10.394-45.48 2.162L289.4 258.983h-40.702v-34.04c0-0.576 3.522 3.924 3.522-6.121h45.759c8.719 0 15.764-6.348 15.764-15.067s-7.045-15.067-15.764-15.067h-72.684c76.032-60.233 176.339-105.835 286.202-105.835 105.643 0 202.462 35.557 277.344 105.835h-91.309c-0.21 0-0.349-2.215-0.523-2.197-3.243-0.174-6.487-0.262-8.964 2.197l-37.598 37.04c-4.604 4.639-4.639 11.858 0 16.497 4.639 4.621 12.138 4.481 16.776-0.157l29.716-31.581c0.209 0 0.383-1.709 0.593-1.709h17.752c-0.244 10.044-5.161 6.749-5.161 8.423v5.284c0 15.433-10.533 26.455-25.949 26.455H657.25c-13.288 0-27.379 14.979-27.379 28.268V289.1h-6.068c-8.301 0-13.986 4.272-13.986 12.556v17.561h-16.88c-11.858 0-21.45 8.144-21.45 19.985s9.592 18.345 21.45 18.345c5.231 0 9.939 1.831 13.637-8.213h0.035l2.895 0.75 34.493-30.867h12.242l27.692 26.402c2.268 2.284 5.964 1.622 8.231-0.646 2.302-2.302 2.302-8.213 0-10.498l-23.02-25.303h16.672l6.521 8.458c12.939 12.939 33.971 11.998 46.91-0.941l6.557-7.516h28.6c1.046 0 5.929 3.627 5.929 3.488v17.125c0-0.017-3.348-0.523-3.662-0.523h-25.564c-8.161 0-14.788 6.888-14.788 15.067s6.592 15.049 14.788 15.049h25.564c0.314 0 3.662-0.279 3.662-0.296v10.69c-10.044 14.91-17.473 29.768-32.365 29.768h-67.453c-0.104 0-0.174-0.349-0.279-0.454l-30.308-30.361c-12.939-12.939-33.901-12.974-46.841 0l-30.308 30.378c-0.104 0.104-0.175 0.436-0.279 0.436h-17.927c-18.311 0-35.087 14.648-35.087 32.976v65.587c0 18.293 16.776 31.965 35.087 31.965h64.349c24.274 10.045 41.016 25.111 51.06 49.421v119.943c0 18.345 11.963 31.424 30.273 31.424h51.619c18.311 0 28.459-13.079 28.459-31.424V583.464l63.687-61.419 2.371-1.151 1.291-0.697 2.127-0.07c5.267-5.894 10.742-13.549 10.742-22.042v-65.569c0-13.026-11.37-22.932-22.321-32.959h30.344c0.871 20.089 15.206 30.117 32.959 30.117h32.365c4.604 30.116 7.15 53.467 7.15 79.974 0 237.076-192.662 432.319-429.548 432.319z m0 0" fill="#f8f8f3" p-id="1897"></path><path d="M597.854 274.329c4.883 0 9.976-3.976 9.976-8.876V243.55c0-4.9-5.093-8.876-9.976-8.876-4.917 0-10.01 3.976-10.01 8.876v21.903c0 4.9 5.093 8.876 10.01 8.876z m0 0M305.234 494.143h-47.817c-18.241 0-29.471 14.771-29.471 33.063v124.373c0 18.24 11.23 32.715 29.471 32.715h20.508v125.697c0 17.718 17.264 32.087 34.982 32.087s34.982-14.369 34.982-32.087v-75.684h-1.186c18.241 0 31.181-10.08 31.181-28.32v-21.693h9.591c18.276 0 30.413-14.475 30.413-32.715v-42.307c0-0.349 0.454-0.593 0.07-1.012L305.234 494.143z m0 0M536.086 163.925c0-17.962-14.578-30.012-32.54-30.012h-38.854c-17.927 0-30.064 12.939-30.064 30.901 0 2.407-6.766 3.104 3.244 5.354v33.779c0 10.533 4.464 19.078 14.997 19.078s14.997-8.545 14.997-19.078v-9.992h35.68c17.962 0 32.54-12.051 32.54-30.03z m0 0M546.271 213.974h15.555c4.534 0 8.267-0.436 8.267-5.022 0-4.551-3.732-5.005-8.267-5.005h-15.555c-4.569 0-8.231 0.454-8.231 5.005-0.001 4.569 3.661 5.022 8.231 5.022z m0 0M380.464 210.853c5.092-5.109 5.092-13.375 0-18.485l-35.714-35.75c-5.127-5.109-13.358-5.109-18.45 0-5.127 5.092-5.127 13.393 0 18.502l35.714 35.75c5.057 5.092 13.358 5.092 18.45-0.017z m0 0M832.787 629.188c-7.115 0-15.032 5.79-15.032 12.904v40.318c0 7.115 7.917 12.904 15.032 12.904 7.114 0 14.997-5.789 14.997-12.904v-40.318c0-7.114-7.883-12.904-14.997-12.904z m0 0" fill="#f8f8f3" p-id="1898"></path></svg>